<svg xmlns="http://www.w3.org/2000/svg" xmlns:xlink="http://www.w3.org/1999/xlink" viewBox="0 0 50.5 48.02"><defs><style>.cls-1{fill:url(#linear-gradient);}.cls-2{fill:url(#linear-gradient-2);}.cls-3{fill:url(#linear-gradient-3);}.cls-4{fill:url(#linear-gradient-4);}.cls-5{fill:url(#linear-gradient-5);}.cls-6{fill:#b0c9d6;}.cls-7{fill:url(#linear-gradient-6);}.cls-8{fill:url(#linear-gradient-7);}.cls-9{fill:url(#linear-gradient-8);}.cls-10{fill:url(#linear-gradient-9);}</style><linearGradient id="linear-gradient" x1="22.27" y1="1.75" x2="22.27" y2="25.08" gradientUnits="userSpaceOnUse"><stop offset="0" stop-color="#fafdfe"/><stop offset="1" stop-color="#b0c9d6"/></linearGradient><linearGradient id="linear-gradient-2" x1="25.25" y1="37.28" x2="40.85" y2="37.28" gradientUnits="userSpaceOnUse"><stop offset="0" stop-color="#b8d2e0"/><stop offset="1" stop-color="#b0c9d6"/></linearGradient><linearGradient id="linear-gradient-3" x1="17.45" y1="29.12" x2="17.45" y2="45.19" gradientUnits="userSpaceOnUse"><stop offset="0" stop-color="#b0c9d6"/><stop offset="1" stop-color="#99b1bd"/></linearGradient><linearGradient id="linear-gradient-4" x1="33.05" y1="27.5" x2="33.05" y2="46" xlink:href="#linear-gradient-3"/><linearGradient id="linear-gradient-5" x1="46.46" y1="22.44" x2="27.46" y2="22.44" xlink:href="#linear-gradient-2"/><linearGradient id="linear-gradient-6" x1="27.12" y1="24.01" x2="48.79" y2="24.01" gradientUnits="userSpaceOnUse"><stop offset="0" stop-color="#b8d2e0"/><stop offset="1" stop-color="#99b1bd"/></linearGradient><linearGradient id="linear-gradient-7" x1="17.45" y1="48" x2="17.45" y2="26.75" gradientUnits="userSpaceOnUse"><stop offset="0" stop-color="#fafdfe"/><stop offset="1" stop-color="#b8d2e0"/></linearGradient><linearGradient id="linear-gradient-8" x1="0.21" y1="24.01" x2="25.21" y2="24.01" gradientUnits="userSpaceOnUse"><stop offset="0" stop-color="#def1fa"/><stop offset="1" stop-color="#99b1bd"/></linearGradient><linearGradient id="linear-gradient-9" x1="2.46" y1="22.44" x2="25.96" y2="22.44" xlink:href="#linear-gradient"/></defs><g id="Layer_2" data-name="Layer 2"><g id="Artwork"><g id="Major"><polygon class="cls-1" points="25.24 26.54 19.29 18.34 25.25 0 25.25 26.52 25.24 26.54"/><polygon class="cls-2" points="25.25 26.54 40.85 48.02 25.25 36.68 25.26 26.55 25.25 26.54"/><polygon class="cls-3" points="25.26 26.55 25.25 36.68 9.65 48.02 25.24 26.55 25.26 26.55"/><polygon class="cls-4" points="25.25 26.55 34.89 29.68 40.85 48.02 25.25 26.54 25.25 26.55"/><polygon class="cls-5" points="25.25 26.54 31.21 18.34 50.5 18.34 25.27 26.54 25.25 26.54"/><polygon class="cls-6" points="25.25 26.52 25.25 0 31.21 18.34 25.25 26.54 25.25 26.52"/><polygon class="cls-7" points="25.27 26.54 50.5 18.34 34.89 29.68 25.25 26.55 25.27 26.54"/><polygon class="cls-8" points="25.24 26.55 9.65 48.02 15.61 29.68 25.25 26.55 25.24 26.55"/><polygon class="cls-9" points="25.25 26.55 15.61 29.68 0 18.34 25.23 26.54 25.25 26.55"/><polygon class="cls-10" points="25.23 26.54 0 18.34 19.29 18.34 25.24 26.54 25.23 26.54"/></g></g></g></svg>